/* XPM */
static char *_53272356ad34629f073b596d8fbb7509eIKEsjyAI56TkYy[] = {
/* columns rows colors chars-per-pixel */
"32 32 230 2 ",
"   c #140100",
".  c #1C0100",
"X  c #130805",
"o  c #191000",
"O  c #240100",
"+  c #2C0100",
"@  c #210C02",
"#  c #2C0A01",
"$  c #330200",
"%  c #3C0300",
"&  c #350A00",
"*  c #3C0C00",
"=  c #251301",
"-  c #2B1B08",
";  c #331402",
":  c #3D1300",
">  c #361908",
",  c #3B1C12",
"<  c #331610",
"1  c #281B12",
"2  c #2F2211",
"3  c #3B2519",
"4  c #33240D",
"5  c #430300",
"6  c #420B00",
"7  c #4A0A00",
"8  c #4F0300",
"9  c #560600",
"0  c #431200",
"q  c #4C1600",
"w  c #4A1C07",
"e  c #571702",
"r  c #421E16",
"t  c #631500",
"y  c #781E01",
"u  c #4F2002",
"i  c #562502",
"p  c #5A2502",
"a  c #5B2903",
"s  c #52260B",
"d  c #5B2A0D",
"f  c #462617",
"g  c #582613",
"h  c #593314",
"j  c #612503",
"k  c #6E2400",
"l  c #692A07",
"z  c #722401",
"x  c #792600",
"c  c #742B02",
"v  c #7B2C02",
"b  c #722D09",
"n  c #782408",
"m  c #61350E",
"M  c #733107",
"N  c #7C330B",
"B  c #73340B",
"V  c #642614",
"C  c #722A11",
"Z  c #6B331C",
"A  c #683A19",
"S  c #7B391E",
"D  c #773816",
"F  c #482C25",
"G  c #443128",
"H  c #583826",
"J  c #6D3A22",
"K  c #693520",
"L  c #743924",
"P  c #723E30",
"I  c #6B411B",
"U  c #584A3F",
"Y  c #6F4024",
"T  c #794628",
"R  c #644E50",
"E  c #715D5F",
"W  c #76695C",
"Q  c #7E735F",
"!  c #605E61",
"~  c #706E71",
"^  c #7D7773",
"/  c #7C7266",
"(  c #852F0A",
")  c #943A04",
"_  c #94330C",
"`  c #9D3E0C",
"'  c #993A06",
"]  c #853C1B",
"[  c #883813",
"{  c #953C13",
"}  c #9C3C13",
"|  c #993F1D",
" . c #A32E03",
".. c #A3350C",
"X. c #A33E0D",
"o. c #AA3D0C",
"O. c #AA3705",
"+. c #B13E0A",
"@. c #A43C13",
"#. c #AA3D13",
"$. c #A33E19",
"%. c #A93C1B",
"&. c #B33D13",
"*. c #B63F21",
"=. c #95460E",
"-. c #9D420B",
";. c #9A4506",
":. c #88471C",
">. c #944314",
",. c #9C4313",
"<. c #95421A",
"1. c #9C431B",
"2. c #954B1B",
"3. c #9D4D1D",
"4. c #974D15",
"5. c #98551A",
"6. c #A74306",
"7. c #AC4107",
"8. c #A3430D",
"9. c #AC450C",
"0. c #A4490D",
"q. c #A94B0B",
"w. c #B1430D",
"e. c #B7460E",
"r. c #A34413",
"t. c #AB4314",
"y. c #A44A13",
"u. c #AA4A13",
"i. c #A2441B",
"p. c #AB441C",
"a. c #A34A1B",
"s. c #AA4A19",
"d. c #B24313",
"f. c #B24B1B",
"g. c #B9451A",
"h. c #A55011",
"j. c #AC501D",
"k. c #864524",
"l. c #8B4D2A",
"z. c #8B4925",
"x. c #9D4327",
"c. c #914C24",
"v. c #9C4B23",
"b. c #944B2C",
"n. c #9A4C2D",
"m. c #8F5125",
"M. c #8B562C",
"N. c #86502A",
"B. c #9C5123",
"V. c #94522E",
"C. c #9C532C",
"Z. c #935327",
"A. c #964F31",
"S. c #8A5538",
"D. c #945233",
"F. c #9B5232",
"G. c #9B5A3C",
"H. c #965838",
"J. c #A24C23",
"K. c #AC4C22",
"L. c #A44D2A",
"P. c #AA4D29",
"I. c #A04220",
"U. c #B14E23",
"Y. c #A25224",
"T. c #A3522B",
"R. c #AB542B",
"E. c #A95525",
"W. c #B15123",
"Q. c #B65128",
"!. c #A24C34",
"~. c #B14D33",
"^. c #A25532",
"/. c #A35A34",
"(. c #A5563B",
"). c #A8543C",
"_. c #AC5938",
"`. c #A7633B",
"'. c #9E5F40",
"]. c #8C5A43",
"[. c #AB5C42",
"{. c #9E6240",
"}. c #8D6446",
"|. c #A76743",
" X c #847464",
".X c #8A706E",
"XX c #887A67",
"oX c #897972",
"OX c #927978",
"+X c #866F69",
"@X c #84836F",
"#X c #858173",
"$X c #8D857B",
"%X c #998C7D",
"&X c #93837A",
"*X c #A28D7C",
"=X c #9A8A82",
"-X c #948A80",
";X c #9B9489",
":X c #9E9197",
">X c #A08F85",
",X c #A38E8C",
"<X c #A48781",
"1X c #A69992",
"2X c #A99687",
"3X c #BFABB4",
"4X c #CEC1BB",
"5X c #DAD0CE",
"6X c #DAD7D7",
"7X c #CDC8CD",
"8X c #DBEFD6",
"9X c #FDF2DC",
"0X c #F5EDDA",
"qX c #E5D8E9",
"wX c #DBECE6",
"eX c #EFEDE0",
"rX c #F5EBEA",
"tX c #E8F6E7",
"yX c #F8F6EB",
"uX c #F1EFFA",
"iX c #E8FFF3",
"pX c #F6F2F2",
"aX c #FCF6F3",
"sX c #F4FEF4",
"dX c #FEFEF3",
"fX c #F3F6FC",
"gX c #FEF5FD",
"hX c #F4FEFD",
"jX c #FFFDFF",
"kX c #FEFDFD",
/* pixels */
"jXgXdXdXdXsXjXjXjXkXiXsXdXkXjXjXjXgXjXkXkXkXjXgXsXkXdXdXsXkXgXjX",
"jXjX1X XQ oXoXoX.X&X#X@X XW :XqX3XOX+X X#X/ .XOXoXW oX X#X7XjXjX",
"jXE . * * 0 % 5 % 6 & & 0 * # O + & & & : : 6 5 0 : * & = X 5XjX",
"rX@ Y |.F.n.).).(.F.^.T.Y.`.].+ V F.`.m.M.H.(.^.F.b.(.G.}.. ;XaX",
"sXo T :.1.1.i.} i.{ y.y.) =.M.% N E.y.=.4.4.i.p.p.$.%.{ G.; %XdX",
"tX- D Y.W.@.#.t.p.s.9.7.e.-.:.% x 8.' 0.h.0.#.#.o.g.&.p.V.O %XdX",
"tX- D ,._ #.g.&.@.f.d.O.9.-.m.5 v W.y.0.-.r.f.t.g. .g.p.F.: &XkX",
"rX= :.i.t.g. .d.p.@.t.w.9.,.C.% x a.` u.-.r.s.@.o.f.o.} F.$ ,XkX",
"rX; [ s.` f.O.d.$.i.X.u.8.{ n.5 v a.r.` ` a.a.,.y.' 0.,.F.% <XkX",
"rX# D E.Y.J.s.K.b.H.v.3.Y.^.H.5 b /.T.R.L.v.V.c.B.Y.3.B.'.$ ,XgX",
"hX! O i u i l j H F s i d s w O $ g e V V g h h s a p a s . 5XjX",
"hX~ O q 0 0 7 $     & * q 6 * 0 % q % 7 7 6 . . : * 6 * * . qXkX",
"pX< N a.L.v.i.v.$ Z /.,.a.R.L.T.T.B.J.J.L.n.6 q /.T.3.2.F.$ 1XkX",
"aX# { d.i.i.8.a.$ D Q.O.+.o.` ` 8.' y.r.i.T.5 j J.` u.r._.6 %XkX",
"wX2 c t.i.P.r.>.& Z i.+.e.O.0.h.q.9.u.8.} T.5 l R.@.d.@.x.* ;XhX",
"iXo ] U.I.1.a.2.+ A P.&.e.7.q.;.6.9.8.r.i.^.6 p L.%.#.$._.% $XhX",
"tX= ] p.1.v.J.:.O A x.*.g.w.0.0.9.w.u.-.i.C.* i T.i.p.i.).% -XsX",
"8X- D i.R.{ <.c.# I !.%...o.r.,.X.' r.,.J.C.& i c.J.i._ !.5 >XkX",
"tX= ] P.v.R.J.C.O m [.~.K.j.3.3.R.a.R.J.P.^.* a /.<.>._.[.$ =XkX",
"sXU 5 ( k z ( t + : C n x c M B M c v z y z + * N k v c e + 4XkX",
"hX^ O % 7 5 5 9 * $ 6 % % % & O O * 5 5 8 8 $ % % 5 q % $ O 6XkX",
"fXX P G.k.C.P.<.z.N.D.z.V.M.T + d S.l.b.!.n.G.D.b.c.z.l.S.O :XhX",
"pX< S v.J.) d.9.=.2.v.<.B.B.D.$ l Z.2.1.p.} a.<.i.a.a.2.{.& =XkX",
"rX; S <.i.u.w.7.0.y.r.r.a.>.V.5 N 2.y.r.u.8.t.t.t.X.s.>.D.& >XkX",
"yX= S J.i.s.o.6.0.-.p.} p.3.k.5 z Y.,.r.-.8.t.p.p.@.p.1.D.# =XjX",
"eX@ k.1.} r.8.u.y.y.K.%.t.1.D.5 ( a.) 0.y.y.r.X...Q.@.| G.: $XkX",
"9X; b K.W.' f.0.;.-.@.t.o.@.F.5 y r.0.0.;.;.8.t.t.#...J.l.& *XyX",
"0X; k.v.<.R.Y.>.Y.B.J.P.U.J.D.7 [ T.J.4.4.5.E.i.L.L.P.n.G.# 2XdX",
"kX1 ; T K Z J J Z J J d D T f . * g J A A h Z L L V Z J H   1XjX",
"kX6XG ; F < , r f > 3 f f ; G ,XR G < ; 4 - , r , 3 f > 1 ^ jXjX",
"hXjXkXdXaXjXjXjXgXjXkXsXyXdXkXjXjXuXjXkXdXdXkXkXaXkXyXdXdXkXjXgX",
"kXjXjXpXjXjXgXjXjXjXhXhXdXdXjXfXhXhXjXfXsXjXjXgXkXkXkXdXsXsXjXjX"
};
