/* XPM */
static char *_ca554d8c5134ce7dfa832c290d0ff7f5qpKnuwxS1LfmQhK[] = {
/* columns rows colors chars-per-pixel */
"32 32 147 2 ",
"   c #080000",
".  c #120703",
"X  c #130804",
"o  c #1C120E",
"O  c #261D19",
"+  c #2C211E",
"@  c #352B2A",
"#  c #433B39",
"$  c #4D4341",
"%  c #524C4E",
"&  c #5A5559",
"*  c #776F6C",
"=  c #767678",
"-  c #686868",
";  c #807772",
":  c #837A74",
">  c #8F8581",
",  c #88878C",
"<  c #928A8C",
"1  c #8C8B93",
"2  c #8F8F9A",
"3  c #948E90",
"4  c #92929B",
"5  c #999798",
"6  c #A19A94",
"7  c #A8A6AB",
"8  c #C0BBBF",
"9  c #C9C3C7",
"0  c #D3CAC5",
"q  c #D4CBCC",
"w  c #CECEDA",
"e  c #CED0DC",
"r  c #D3D0D7",
"t  c #D1D1DD",
"y  c #DED8DC",
"u  c #E4DCDC",
"i  c #EAE3DD",
"p  c #D2D4E0",
"a  c #D6DAE6",
"s  c #D9DCE5",
"d  c #DDDEEA",
"f  c #E0DEE5",
"g  c #E1DFEA",
"h  c #DDE2EC",
"j  c #E4E2E6",
"k  c #EAE4E6",
"l  c #E2E4ED",
"z  c #E8E7EF",
"x  c #E6E8EE",
"c  c #EAE9EE",
"v  c #F1EDEE",
"b  c #F9EFED",
"n  c #F7F2EF",
"m  c #E4E5F1",
"M  c #E8E6F1",
"N  c #E6E9F2",
"B  c #ECECF3",
"V  c #E9EDF9",
"C  c #F1EEF3",
"Z  c #EDF0F5",
"A  c #EFF0F4",
"S  c #EEF2F5",
"D  c #EFF3F6",
"F  c #EFF0F3",
"G  c #F1F1F1",
"H  c #F0F1F3",
"J  c #F0F0F2",
"K  c #F3F3F3",
"L  c #F4F0F1",
"P  c #F5F1F2",
"I  c #F4F2F3",
"U  c #F1F1F5",
"Y  c #F1F2F4",
"T  c #F2F3F5",
"R  c #F3F3F5",
"E  c #F0F1F6",
"W  c #F3F1F6",
"Q  c #F1F2F6",
"!  c #F2F3F7",
"~  c #F7F3F4",
"^  c #F6F1F7",
"/  c #F0F4F5",
"(  c #F1F5F6",
")  c #F3F4F6",
"_  c #F2F6F7",
"`  c #F6F4F5",
"'  c #F4F5F7",
"]  c #F7F5F6",
"[  c #F6F4F7",
"{  c #F5F7F6",
"}  c #F6F6F6",
"|  c gray97",
" . c #F4F4F4",
".. c #F2F2F5",
"X. c #FBF2F3",
"o. c #F8F4F5",
"O. c #F8F7F5",
"+. c #FAF6F5",
"@. c #F8F6F7",
"#. c #FBF7F6",
"$. c #FAF4F4",
"%. c #FBF6F3",
"&. c #F6F8F7",
"*. c #FDFAF6",
"=. c #F2F3F8",
"-. c #F1F5F8",
";. c #F3F4F8",
":. c #F3F7F8",
">. c #F5F6F8",
",. c #F6F7F9",
"<. c #F5F6FA",
"1. c #F3F4F9",
"2. c #FCF6F8",
"3. c #F9F6F9",
"4. c #F3F9F9",
"5. c #F4F8F9",
"6. c #F7F9F8",
"7. c #F6FAF9",
"8. c #F5F9FA",
"9. c #F7F8FA",
"0. c #F6FAFB",
"q. c #F7F8FC",
"w. c #F7FBFC",
"e. c #F6FCFC",
"r. c #F7FDFD",
"t. c #F7F9FB",
"y. c #F8F8F8",
"u. c #F9F9F9",
"i. c #F8F9FB",
"p. c gray98",
"a. c #FBFBFB",
"s. c #FEF8FA",
"d. c #FAFCFB",
"f. c #FDFCFA",
"g. c #F9FAFC",
"h. c #FAFBFD",
"j. c #FDFBFC",
"k. c #F8FCFD",
"l. c #FBFDFC",
"z. c #FBFCFE",
"x. c #FAFFFF",
"c. c #F8FEFE",
"v. c gray99",
"b. c #FDFDFD",
"n. c #FEFEFE",
"m. c white",
"M. c #FDFDFD",
/* pixels */
"u.u.u.u.u.v.v.v.v.v.u.| K u.v.u.u.g.q.9.r.z.r.4.q.9.9.9.u.u.$.| ",
"u.v.v.v.v.v.v.v.v.u.u.v.v.v.v.v.g.z.z.z.z.z.z.r.9.9.&.| | | | L ",
"v.v.v.v.v.v.v.v.v.v.v.v.v.u.u.v.v.v.v.z.d.9.9.z.9.4.) ) ) Y Y K ",
"v.v.v.v.v.v.v.v.u.v.v.| u.v.v.v.v.u.$.u.u.| ,.9.4.) D A Y A B B ",
"v.v.v.v.v.v.v.v.u.v.u.u.v.v.v.| f.$.^ | u.| ) Y ;.D A A B B B N ",
"v.v.v.v.v.v.v.v.v.u.v.v.| K u.v.$.$.$.^ | | ) B A A B B B N B N ",
"v.v.v.v.v.v.v.u.u.| v.v.| u.v.C v $.2.L C Y Y B B B B B B N N M ",
"u.u.u.u.u.u.u.u.u.K u.| K v.j 5 k X.f.L c B C c N N N N N N M M ",
"9.,.,.,.,.,.| ) ,.Y F ,.K Y g.- % < 9 c Y c c B x x m m M m m m ",
",.| ;.) ;.) Y K Y Y B Y B c q.= & < 8 j C c x l l l m m m m m m ",
"=.Y Y A Y A B B B B B B B x =., k ^ C B c j j j l l m h m l l l ",
"B B B B B B N N z B N c N j B 4 f c j f l l N N l l l h l h h h ",
"B N B N N N N N M z M z B j M 4 a z l z N l l s h h h h h h l l ",
"B N M M M M M M M l z l N l z 4 s l h h h h h h h h h h h h l d ",
"B N M M m M m m M d M l M l M 2 e h h h m h h h h h h h d d d d ",
"N M m l l l l l M d M d d l M 2 p h h h h h h h h h d d d d d d ",
"M z l l l l m h m h M d m m l 4 t N s d m h s l h h d d d d g g ",
"z z l l l l m m V a N B h s B 2 w l m m l m a d h h h h j j g g ",
"c x l l l l m m m N l s N N B 1 t z z l d N l l l l l l l l l l ",
"B c N N N N N N l N z N B f C 7 r B c B B B x l x x x x z z M z ",
"A B B B B B B B q.c ;.Y k C v.3 y u.c j Y c B B B B B B B B B B ",
",.;.) ;.;.;.;.Y A C u.L j.X.u < q u v.L u.c K K Y Y Y =.=.;.;.;.",
"u.9.9.q.q.q.g.9.v.f.$.%.%.* + $ @ # u n f.f.y.u.9.9.9.q.g.g.g.g.",
"z.z.z.z.z.z.z.d.j.u.%.%.f.: X + O o %.f.n f.$.f.f.d.g.g.g.g.z.z.",
"d.z.z.v.v.v.v.z.u.v.%.f.%.; X o   O i *.f.f.f.f.f.f.v.v.v.v.v.v.",
"z.z.v.v.v.v.v.v.v.v.f.f.f.0 > : > 6 *.f.f.*.%.f.v.v.v.v.v.v.v.v.",
"f.f.v.v.v.v.v.v.v.v.f.%.%.*.%.%.b f.%.f.f.f.f.v.v.v.v.v.v.v.v.v.",
"f.f.v.v.v.v.v.v.v.v.v.v.f.%.f.f.f.f.n %.v.v.f.f.v.v.v.v.v.v.v.v.",
"f.f.v.v.v.v.v.v.v.v.u.v.v.v.%.%.2.$.f.v.v.v.v.u.v.v.v.v.v.v.v.v.",
"f.v.v.v.v.v.v.v.v.v.v.| j.v.v.v.v.u.v.v.v.u.v.v.v.v.v.v.v.v.v.v.",
"f.f.v.v.v.v.v.v.g.v.v.v.v.j.g.u.v.v.v.v.z.,.v.v.v.v.v.v.v.v.v.v.",
"u.u.u.u.g.g.g.g.v.Y 9.v.g.v.v.u.;.v.Y v.v.9.z.9.g.g.u.u.f.f.f.f."
};
