/* XPM */
static char *_7a2525afe2148b1bbffcfe6170b8146jUrYA2aAw42fOLj6[] = {
/* columns rows colors chars-per-pixel */
"32 32 239 2 ",
"   c #190100",
".  c #2C0B07",
"X  c #391801",
"o  c #30130D",
"O  c #3B1C21",
"+  c #3B232D",
"@  c #0D1337",
"#  c #490800",
"$  c #421601",
"%  c #591500",
"&  c #550B02",
"*  c #770A00",
"=  c #6A1502",
"-  c #7F111B",
";  c #730D0B",
":  c #44240A",
">  c #5E320C",
",  c #573618",
"<  c #522D1D",
"1  c #6A3719",
"2  c #6E3010",
"3  c #74182D",
"4  c #66172D",
"5  c #523A29",
"6  c #483731",
"7  c #4D2E2C",
"8  c #6F392A",
"9  c #594818",
"0  c #674119",
"q  c #744C19",
"w  c #4B4633",
"e  c #735326",
"r  c #6E4A37",
"t  c #79622C",
"y  c #011C53",
"u  c #112454",
"i  c #363148",
"p  c #1D1F65",
"a  c #0E347D",
"s  c #0C2D71",
"d  c #263263",
"f  c #3A2E79",
"g  c #252E74",
"h  c #5F194B",
"j  c #5A2E49",
"k  c #643756",
"l  c #413867",
"z  c #70356A",
"x  c #2F4671",
"c  c #4B4156",
"v  c #554C44",
"b  c #664944",
"n  c #7B5D4D",
"m  c #46577A",
"M  c #6E4D70",
"N  c #5E656E",
"B  c #891818",
"V  c #9C1817",
"C  c #881209",
"Z  c #B1140D",
"A  c #A51C18",
"S  c #AF1513",
"D  c #9A271A",
"F  c #84351A",
"G  c #A2261A",
"H  c #8C1C2A",
"J  c #A51824",
"K  c #B91B24",
"L  c #92282A",
"P  c #A72623",
"I  c #AB3638",
"U  c #C81519",
"Y  c #D61B17",
"T  c #F8180B",
"R  c #EC1619",
"E  c #F71B1A",
"W  c #EA1C0E",
"Q  c #C8271C",
"!  c #D62416",
"~  c #E22618",
"^  c #FC261A",
"/  c #F2210D",
"(  c #CB1B25",
")  c #EC1D24",
"_  c #C7272A",
"`  c #D52424",
"'  c #CF362E",
"]  c #EA2627",
"[  c #F92726",
"{  c #FC3422",
"}  c #EF3133",
"|  c #86401C",
" . c #92611F",
".. c #AD4933",
"X. c #A36530",
"o. c #AB374D",
"O. c #922951",
"+. c #964B52",
"@. c #AC585A",
"#. c #A84F4E",
"$. c #9C7847",
"%. c #997C5A",
"&. c #AB744D",
"*. c #8F7371",
"=. c #AB6967",
"-. c #B27273",
";. c #CF524D",
":. c #FF545D",
">. c #D07456",
",. c #E06D58",
"<. c #DB5866",
"1. c #DA7F63",
"2. c #DD646B",
"3. c #A28355",
"4. c #908778",
"5. c #A19267",
"6. c #DA9877",
"7. c #D08C6B",
"8. c #E49B74",
"9. c #D8A577",
"0. c #E5A77A",
"q. c #032886",
"w. c #093387",
"e. c #153589",
"r. c #122C94",
"t. c #073799",
"y. c #173696",
"u. c #0C2E8F",
"i. c #34368E",
"p. c #0937A3",
"a. c #163AAA",
"s. c #073EB8",
"d. c #103BB4",
"f. c #2D3EAB",
"g. c #174594",
"h. c #33488B",
"j. c #0643A8",
"k. c #1343A6",
"l. c #0747B8",
"z. c #184AB5",
"x. c #1751BD",
"c. c #284BBC",
"v. c #3560AE",
"b. c #554085",
"n. c #745285",
"m. c #506C8D",
"M. c #707CA4",
"N. c #707D8E",
"B. c #0C3CC7",
"V. c #1346C9",
"C. c #1B5ACA",
"Z. c #144CD7",
"A. c #1754D6",
"S. c #0C43CC",
"D. c #264ED1",
"F. c #2259E6",
"G. c #997C80",
"H. c #7EA1BD",
"J. c #768B9A",
"K. c #618CE2",
"L. c #958785",
"P. c #928B97",
"I. c #B09E89",
"U. c #B68D91",
"Y. c #91A7B2",
"T. c #A6B2B1",
"R. c #A39AA3",
"E. c #D59190",
"W. c #F59996",
"Q. c #D9A78A",
"!. c #D3B090",
"~. c #E7AB8A",
"^. c #F8B38C",
"/. c #F8B899",
"(. c #EDAE8E",
"). c #D89FA6",
"_. c #C4AAA5",
"`. c #D9B3AE",
"'. c #F8B9B5",
"]. c #EFAFAD",
"[. c #E7C891",
"{. c #F1CA93",
"}. c #D7C4BB",
"|. c #CBC7BC",
" X c #FFCAA7",
".X c #FFD6AC",
"XX c #FFD9B7",
"oX c #E5D4AB",
"OX c #FFE6B9",
"+X c #FFFBBC",
"@X c #F9E8A3",
"#X c #A19AC6",
"$X c #85A4C5",
"%X c #96B4CE",
"&X c #ABBDCB",
"*X c #ACB3CD",
"=X c #8DB6FF",
"-X c #C1BCC5",
";X c #EFBCC5",
":X c #BAD4D8",
">X c #AACBCF",
",X c #AFC5ED",
"<X c #CACBDE",
"1X c #D7D1D7",
"2X c #D0D1CC",
"3X c #FACBC5",
"4X c #FFD4CA",
"5X c #F6CCD1",
"6X c #FFEAC5",
"7X c #FFF4CA",
"8X c #FEE5DE",
"9X c #FDF8DB",
"0X c #E1E3DE",
"qX c #CEDAE3",
"wX c #C7DBF8",
"eX c #D9DAF7",
"rX c #C9CBE2",
"tX c #FDDBE4",
"yX c #FFD9F2",
"uX c #EFD5E8",
"iX c #D8E9FE",
"pX c #D6EAF3",
"aX c #ECEBE1",
"sX c #FFEBED",
"dX c #FCE9E6",
"fX c #FFF4EC",
"gX c #FDFCEC",
"hX c #FAF7E7",
"jX c #E8ECF9",
"kX c #FFEBFA",
"lX c #ECFEFD",
"zX c #E7F7FB",
"xX c #FFF5F4",
"cX c #FEFCF4",
"vX c #F4F5FD",
"bX c #FEF5FD",
"nX c #F4FEFE",
"mX c #FDFDFE",
"MX c #F4FDF3",
/* pixels */
"mXnXlXlXnXmXmXsXfX8XW.:.} [ [ :.5XkXmXmXmXmXbXbXmXmXmXmXmXmXmXnX",
"mXnXnXnXmXxXfXfX'.;.K ] ] [ [ Y 2.tXxXmXmXbXmXmXmXmXmXmXmXmXmXnX",
"mXmXmXmXcXcXdXW.J ( ] ] E [ { ~ ' W.4XdXcXcXcXcXcXmXmXmXbXmXnXlX",
"mXmXmXxXfXfXW.P ( [ E R [ ^ / { ~ ' '.8X4X3X`.}.cXmXmXmXbXmXmXlX",
"mXbXmXfXgX'.L K ) R E [ ^ T T ^ / ~ } _ I I 3 *.mXnXnXmXmXmXmXmX",
"mXmXxXxX8X#.V ` ] R E E T ^ { W ] Y U ( J ; +.sXmXnXnXmXmXmXmXmX",
"nXnXMXxXE.C _ U Y ] [ [ ] Y Y Q P C L H ; -.xXcXmXmXmXmXmXmXmXmX",
"lXmXmXsXo.J K ( ` ` ` ! Q Q ' ,.7.Q.).E.;XxXfXhXgXcXmXmXmXmXmXmX",
"mXmXdX-.H J A A A Z Z Z C ..W. XXX6X*._.kXtX3XXX7X9XnXmXmXmXcXgX",
"cXtX+.- J V D C I ,.;.C ; F F ~.OX7XL.L.tX)./. X7X9XMXnXmXmXcXgX",
"fX=.- J V A * ...X.X^.7.= = % 7.+XoXw 6 r -.7.0.Q.oXaXnXmXmXmXcX",
"dXE.B J P V * &.6X(.6.(.8.| $..X@X+X5.    . e &.Q.oXcXmXmXnXmXmX",
"gXdX=.H B B B 2 ~.6XXX/.OX/. X[.[.{.{.9.1 .   5 9XgXcXmXmXmXmXmX",
"gXcXxX].@.H & # 1 7./.~.7.7.7.~.9.0.8.0.~.!.I.|.mXmXxXxXcXmXmXmX",
"mXmXxXbXbX`.n r $ # = * ..>.>.1.>.>.1.6.].3XsXmXbXnXmXmXmXmXmXmX",
"mXnXjXvXxXcXgXdX3X+.L A V G D D I @.@.-.].kXyXuXeXiXzXnXmXmXmXmX",
"rX<XqXzXmXMXMXmXbXyX;.` } ! Q H h z j j k k R.uX<XvXiX&XjXmXbXmX",
"*X*X&X:XqXlXzXzXvXyX<.U ~ ! ` o.n.l n.P.M M P.*X<XnX:XY.qXjXmXbX",
"%X$X$X%X%X:X>X:XvXU.I V Z K _ o.M l L.aX0XN N N.Y.:XzX&XY.T.pXzX",
"wX&X$XH.Y.>XT.Y.1XL.4 4 3 H O.z b.h.x m.%Xm x m.J.J.T.R.*.4.T.cX",
"mXmXzXwXY.P.T.qXmXmXm p f i.i.f.c.D.c.k.t.z.k.=XiXnXI.$.$.$.3.OX",
"gXgXmXmXvX1X-X&X1XjXh.q.p.a.d.d.Z.B.S.A.Z.F.l.K.wXeX%. .X.X.2 &.",
"hXcXmXvXmXmX*.O + i s k.t.p.k.z.s.A.V.V.F.Z.C.x.c.p r X. .F 8 '.",
"gXhXmXmXmX8Xr O + @ g.t.t.p.t.j.j.l.V.F.Z.A.C.C.D.i.b q 1 > -.kX",
"hXcXmXbXcX_.X 7 i y s k.a.r.u.t.t.p.d.B.B.S.l.x.V.h.v 9 , < tXbX",
"cXxXbXxXcX4.X 6 u a q.q.y.y.y.y.e.w.y.a.d.s.l.j.z.e.w 9 X _.mXbX",
"mXmXmXmXaXw : 6 s w.q.u.r.q.w.w.s e.e.a q.p.p.p.y.d 6 : r fXbXmX",
"vXmXvXmXR.. , 6 d a e.e.e.a s y x ,XiX,XK.v.w.w.d c 5 : `.cXmXnX",
"mXmXMXgXn $ 1 8 i u g g h.h.m.%XvXjXnXnXzXlXiXM.i o o *.fXcXmXmX",
"mXcXmX2X: > 2 0 b c #XeXiXzXlXnXmXmXcXgXMXnXmXvX2XL.*.dXcXcXcXmX",
"mXmXmX|., > 0 e , }.mXvXnXnXlXmXmXmXMXcXmXmXbXmXmXmXcXxXcXmXmXmX",
"mXmXvXcX!.e e t [.9XbXvXnXnXmXmXmXnXMXcXmXmXmXcXcXmXmXmXmXmXmXmX"
};
