/* XPM */
static char *_7e38af529fa41889e8b4bbb7bb88409SJyacYTJ04dXm7SZ[] = {
/* columns rows colors chars-per-pixel */
"32 32 205 2 ",
"   c #313639",
".  c #5D1719",
"X  c #5B2815",
"o  c #6E201C",
"O  c #7E2016",
"+  c #4E283D",
"@  c #0B1D45",
"#  c #51394F",
"$  c #542051",
"%  c #5D2C61",
"&  c #3F446E",
"*  c #3B487C",
"=  c #6C404D",
"-  c #6E5B5F",
";  c #696669",
":  c #7B6B6C",
">  c #8F1B1C",
",  c #902014",
"<  c #A12B1F",
"1  c #951928",
"2  c #8B1E33",
"3  c #881620",
"4  c #93212B",
"5  c #8B2A33",
"6  c #87253C",
"7  c #9A2736",
"8  c #803E32",
"9  c #933538",
"0  c #8C2129",
"q  c #A42C3C",
"w  c #997926",
"e  c #A67F22",
"r  c #A57834",
"t  c #943241",
"y  c #903E42",
"u  c #8D3C45",
"i  c #B02F45",
"p  c #8A4B46",
"a  c #8D5244",
"s  c #8C5E5E",
"d  c #9B5347",
"f  c #B5414E",
"g  c #A3524F",
"h  c #B24D5D",
"j  c #BA5257",
"k  c #9E6353",
"l  c #A8724E",
"z  c #B46556",
"x  c #A35865",
"c  c #BF596E",
"v  c #97656B",
"b  c #BA646D",
"n  c #BF7960",
"m  c #B97B78",
"M  c #AA7F76",
"N  c #8C4D6C",
"B  c #C25149",
"V  c #CE5F6A",
"C  c #CE6A69",
"Z  c #DF666F",
"A  c #D27976",
"S  c #CF6777",
"D  c #D3A933",
"F  c #8E8969",
"G  c #BDA370",
"H  c #C29159",
"J  c #D3947E",
"K  c #CBB170",
"L  c #EBC158",
"P  c #FBCB45",
"I  c #E5C56E",
"U  c #FFE770",
"Y  c #122C8D",
"T  c #062C95",
"R  c #103999",
"E  c #23398F",
"W  c #34368B",
"Q  c #083EA9",
"!  c #3B5588",
"~  c #1646B5",
"^  c #2440AB",
"/  c #2B52BC",
"(  c #2F6FAD",
")  c #2767BC",
"_  c #3C6DAB",
"`  c #40598F",
"'  c #564A8A",
"]  c #755D97",
"[  c #51659A",
"{  c #666B92",
"}  c #415FB9",
"|  c #5574B4",
" . c #7C7FA2",
".. c #0E50C8",
"X. c #174FC6",
"o. c #285CC2",
"O. c #6D7FC9",
"+. c #966D8B",
"@. c #868687",
"#. c #808A94",
"$. c #9A8B86",
"%. c #AD8482",
"&. c #B9AD9F",
"*. c #ADA99D",
"=. c #9796A6",
"-. c #9BA4A1",
";. c #ACA9A7",
":. c #B3ACAC",
">. c #BAABA1",
",. c #B9B2A6",
"<. c #ADAFB5",
"1. c #A2ACB8",
"2. c #B1ADB4",
"3. c #AFB4B2",
"4. c #BAB4BA",
"5. c #CB9996",
"6. c #D19098",
"7. c #C98589",
"8. c #E7898A",
"9. c #E79891",
"0. c #E78C91",
"q. c #F2A19D",
"w. c #E7A49E",
"e. c #DA93A1",
"r. c #E69CAA",
"t. c #FF9CA4",
"y. c #FF99AD",
"u. c #FF95AD",
"i. c #C8A6A7",
"p. c #CFAFB4",
"a. c #C7BDBC",
"s. c #C0B9B3",
"d. c #D3B1A7",
"f. c #E4A5A7",
"g. c #F9A9A6",
"h. c #FFA8B8",
"j. c #FCBCBB",
"k. c #F9B4B7",
"l. c #F7B3AA",
"z. c #CCB691",
"x. c #FFF590",
"c. c #CBC6B9",
"v. c #D1C7B3",
"b. c #F5C3BC",
"n. c #ECDABE",
"m. c #FFFCAD",
"M. c #EBE3BF",
"N. c #FCE5BC",
"B. c #94BBD8",
"V. c #AEACC2",
"C. c #A2ABD6",
"Z. c #87B1E3",
"A. c #A4BBEE",
"S. c #C5BBC2",
"D. c #F9BDC2",
"F. c #CAB3E1",
"G. c #BECCF9",
"H. c #A5C3E5",
"J. c #C4CBC7",
"K. c #C9C5C9",
"L. c #C5C6D1",
"P. c #FAC6C4",
"I. c #FFCBD5",
"U. c #E7D8D5",
"Y. c #FFDCD9",
"T. c #FFDDD4",
"R. c #E8D6CA",
"E. c #FFFFCD",
"W. c #E4E3D6",
"Q. c #FFFED3",
"!. c #FFF3D9",
"~. c #D6DAFF",
"^. c #EBDFED",
"/. c #FFDBE4",
"(. c #DDE3E1",
"). c #DCFFFF",
"_. c #E7E6E7",
"`. c #FEE4E4",
"'. c #FFEAE1",
"]. c #FFEDEC",
"[. c #EDFEEE",
"{. c #FFF4E4",
"}. c #FEFEE7",
"|. c #F7F6EE",
" X c #FDF4EC",
".X c #F4FEEE",
"XX c #FEFDEE",
"oX c #F2F9E7",
"OX c #EEEDF2",
"+X c #FFECF4",
"@X c #FAEAFC",
"#X c #EEFEF5",
"$X c #EEFEFC",
"%X c #EAF4F8",
"&X c #F5F2F3",
"*X c #FFF5F4",
"=X c #F4FDF5",
"-X c #FDFEF5",
";X c #FFF5FD",
":X c #F5FEFD",
">X c #FEFFFF",
",X c #FFFEFF",
"<X c #FEFEFE",
"1X c #FDFDFD",
"2X c #F4F4FE",
/* pixels */
"1X1X1X1X,X,X<X,X;X1X:X:X#X=X-XN.L P U x.m.E.}.=X1X,X;X,X1X1X-X-X",
"1X1X1X,X,X,X:X<X1X1X=X:X:X-X Xz.e D L I K Q.}.-X<X2X,X,X;X,X1X-X",
"1X1X,X,X,X<X:X:X1X,X#X$X:X1X-Xn.K w r H N.!.}.-X,X,X&X1X;X,X,X-X",
",X,X,X,X,X<X:X:X,X,X:X:X:X&X-XXXQ.G l n 9.l.b.'.].-X;X;X;X;X&X1X",
",X,X,X,X,X,X,X,X1X;X1X<X,X*X;X*X}.d.w.5 7 f 8.g.P.P.k.+X+X*X-X1X",
",X,X,X,X,X,X,X,X;X;X,X<X,X,X1X;X1Xi.r.2 y.y.V k.g 9.A 9 b 6.i.U.",
",X,X<X<X,X,X,X1X1X1X,X:X:X,X1X1X1Xi.r.c h.q 8.A 8.9 t.1 1 t 7.`.",
",X,X<X<X<X,X,X,X-X-X<X:X<X<X1X1X*Xp.e.t S h.`.Y.b.A j j t./.].].",
",X,X<X:X<X1X1X*X1X-X:X:X$X:X,X,X1X>.f.5 7 i V 0.f.b.T.{.*X*X*X*X",
"<X,X%X,X*X].*X*X*X-X&X=X<X%X<X,X=X,.i.x S y.I./.*X*X-X1X-X-X*X1X",
"<X2X,X*X+X*X+XP.D.Y.*X*X1X1X<X1XXX,.v.].;X;X;X;X1X,X<X:X<X,X1X1X",
"<X,X,X-X*XI.h 7 b 7.m d.`.*X|.1X-X,.c.1X-X-X1X1X1X1X<X<X,X,X1X;X",
",X1X,X*XI.u 7 1 0 9 y . s *X*X*X-X;.J.<X<X,X1X1X1X1X,X,X<X,X1X1X",
"OX&X-X`.%.. 3 Z C g.P.j.Y.].].].:.@.3._.:X<X1X1X;X;X,X<X<X,X,X,X",
"S.K._.U.'.M o g.k X a m 5.j.D.v - @.3.(.=X,X,X1X1X1X1X-X,X,X1X1X",
"^.S.;.4.R.P.d z J J 8 p v = + # =.1.1.%X<X:X-X1X-X-X-X-X-X1X1X1X",
"1X@X_.U.5.p O , < B j x +.{ ` Z.).B.H.$X$X:X<X-X-X-X,X,X<X:X$X:X",
"1X,X,X1X*XY.q.C > 4 6 = ] O.) ) ( _ _ | A.:X:X-X}.XX,X1X1X<X:X:X",
":X:X:X=X=X1X;X+X+XN $ % W ^ X...Q o.~ / } [ -.v.M.{.-X;X;X1X-XXX",
".X[.#X:X:X:X;X1X@X;XF.' W Y T Q R R / Y E * ; F n.!.*X1X1X1X-X X",
"-X-X1X:X:X<X,X,X1X1X1X2X~.G.A.! @ { C.&  .V.4.W.XX-X1X-X,X1X-XXX",
" X-X1X,X,X,X,X,X,X*X*X,X<X:X%X#.  @.4.; S.,X,X,X1X1X1X1X1X-X=X=X",
"-X-X*X,X,X,X1X,X,X1X|.-X-X-X-X-XW.,.a.: $.*X-X,X=X-X1X1X1X,X:X:X",
"-X1X,X,X1X1X1X,X,X1X-X-XoX-X.X-XXX*.a.1X X1X-X-X-X1X,X1X1X1X1X,X",
":X<X<X,X,X,X,X,X,X,X<X<X<X<X<X,X,X2.L.<X<X<X-X}.XX-X,X1X1X1X1X1X",
"<X<X<X,X,X,X,X,X,X,X<X<X<X,X,X,X,X2.L.<X<X<X-XXX-X1X,X,X,X1X1X1X",
"1X,X,X,X,X,X,X1X1X1X1X1X,X,X1X-X-X>.c.-X1X1X1X1X,X<X:X:X:X<X1X1X",
"1X1X1X,X,X,X-X-X-X1X1X,X,X,X1X1X-X&.v.XX-X1X,X<X<X<X<X-X-X=X=X:X",
"1X1X,X,X<X-X:X:X<X<X,X,X,X,X,X,X,X:.K.1X1X1X<X:X:X-X,X,X-X-X-X:X",
"1X,X,X1X-X:X:X<X<X,X,X,X1X,X,X,X<X<.L.,X,X,X<X<X<X-X,X,X1X1X,X<X",
"-X1X1X1X-X-X<X,X,X1X1X1X,X1X-X-X<X<.J.<X,X,X,X,X,X,X,X,X,X,X1X1X",
"1X1X1X1X-X-X,X,X1X1X1X1X1X-XXX=X,X<.J.:X<X,X,X,X1X1X,X,X,X,X1X1X"
};
