/* XPM */
static char *decbf2b53695464efa6d5376923076f15WVxljH5siuNMEyP[] = {
/* columns rows colors chars-per-pixel */
"32 32 239 2 ",
"   c #250600",
".  c #3D1A04",
"X  c #271417",
"o  c #342218",
"O  c #051838",
"+  c #352B38",
"@  c #571804",
"#  c #481308",
"$  c #750D00",
"%  c #691D00",
"&  c #781808",
"*  c #7B0712",
"=  c #711D1B",
"-  c #512C13",
";  c #4C2811",
":  c #783E1C",
">  c #6B3015",
",  c #481F31",
"<  c #711925",
"1  c #473429",
"2  c #5C3926",
"3  c #543C33",
"4  c #54292D",
"5  c #663926",
"6  c #59431E",
"7  c #6C481A",
"8  c #4F4833",
"9  c #754426",
"0  c #694C3B",
"q  c #001E4E",
"w  c #142754",
"e  c #25335B",
"r  c #2E374A",
"t  c #092D76",
"y  c #0A347B",
"u  c #113674",
"i  c #262B68",
"p  c #303573",
"a  c #683546",
"s  c #673368",
"d  c #792E66",
"f  c #5A275B",
"g  c #12407C",
"h  c #2B4770",
"j  c #54484F",
"k  c #735649",
"l  c #7E6256",
"z  c #77447A",
"x  c #734E68",
"c  c #536771",
"v  c #4F597C",
"b  c #851405",
"n  c #861A18",
"m  c #99171B",
"M  c #8D1113",
"N  c #AC130A",
"B  c #A51917",
"V  c #B01611",
"C  c #99241B",
"Z  c #85331A",
"A  c #A52E1A",
"S  c #8F1928",
"D  c #A21825",
"F  c #B31A24",
"G  c #972D2D",
"H  c #A62424",
"J  c #C71C17",
"K  c #D71D1A",
"L  c #C70E17",
"P  c #FA1C0E",
"I  c #F91A16",
"U  c #E9171B",
"Y  c #D82618",
"T  c #C7261C",
"R  c #F92418",
"E  c #ED271C",
"W  c #D51C25",
"Q  c #C01F25",
"!  c #FA1F25",
"~  c #C62227",
"^  c #D62526",
"/  c #CA2C32",
"(  c #E92528",
")  c #F82627",
"_  c #E43427",
"`  c #FF2933",
"'  c #F7333D",
"]  c #865937",
"[  c #934925",
"{  c #B64633",
"}  c #8E6228",
"|  c #99743F",
" . c #AA6F33",
".. c #D94238",
"X. c #E0493E",
"o. c #AC3347",
"O. c #952C55",
"+. c #C63B40",
"@. c #984F53",
"#. c #AC5458",
"$. c #AD4E47",
"%. c #A67F52",
"&. c #AF6D48",
"*. c #8D7771",
"=. c #A77875",
"-. c #B46F70",
";. c #A95867",
":. c #D65A4A",
">. c #D24555",
",. c #D6745B",
"<. c #E6735E",
"1. c #D75A65",
"2. c #FF5864",
"3. c #C27875",
"4. c #98855D",
"5. c #A08152",
"6. c #B18362",
"7. c #8D8874",
"8. c #DC8869",
"9. c #D5966D",
"0. c #CD9072",
"q. c #E69371",
"w. c #DBA47C",
"e. c #E6A57B",
"r. c #022987",
"t. c #06368A",
"y. c #143589",
"u. c #0A3697",
"i. c #153796",
"p. c #0B2D92",
"a. c #2F398D",
"s. c #0B3AA5",
"d. c #143DA8",
"f. c #073CB4",
"g. c #213DBA",
"h. c #473A84",
"j. c #12469A",
"k. c #344E89",
"l. c #0C42AD",
"z. c #0944BB",
"x. c #1A45B5",
"c. c #2B4CB2",
"v. c #677B90",
"b. c #606D99",
"n. c #0C3ECC",
"m. c #0C46C7",
"M. c #1346CB",
"N. c #1848D4",
"B. c #1A54D0",
"V. c #2654CD",
"C. c #2154DE",
"Z. c #254CCA",
"A. c #295CE9",
"S. c #977BA1",
"D. c #A4798C",
"F. c #7B98AA",
"G. c #7EA0BC",
"H. c #628CE3",
"J. c #988786",
"K. c #828A98",
"L. c #9C9591",
"P. c #A89194",
"I. c #8E9FA7",
"U. c #B298A3",
"Y. c #87A7BD",
"T. c #99ABBB",
"R. c #95A2A9",
"E. c #AFADB0",
"W. c #B3A288",
"Q. c #DA9D9A",
"!. c #CB8989",
"~. c #F59691",
"^. c #CAAA95",
"/. c #DAAD91",
"(. c #ECAC89",
"). c #E6A990",
"_. c #F6B493",
"`. c #D2B5B1",
"'. c #F6BBAC",
"]. c #F8B4B5",
"[. c #E6B4B3",
"{. c #D6C194",
"}. c #ECC996",
"|. c #F9C49A",
" X c #F3D29D",
".X c #D3CDBD",
"XX c #FFC8A9",
"oX c #FCD2A9",
"OX c #FAD3B7",
"+X c #E4D0AD",
"@X c #FEE7B7",
"#X c #F3E9B6",
"$X c #A49DC6",
"%X c #93AECC",
"&X c #A6B5C8",
"*X c #AEB3CA",
"=X c #8AAFFF",
"-X c #AFBCF3",
";X c #CCB7D2",
":X c #AFC5D5",
">X c #B6D0F1",
",X c #C6D3D9",
"<X c #D0C9D1",
"1X c #FDCCC2",
"2X c #FCD4C7",
"3X c #FCD8DB",
"4X c #EDC9CD",
"5X c #D5E3DC",
"6X c #FFEBC7",
"7X c #FBE9DC",
"8X c #FEF7D5",
"9X c #FFF1C9",
"0X c #D6D8E7",
"qX c #DCDDF9",
"wX c #CCD3EA",
"eX c #FDD8E8",
"rX c #E9D4E7",
"tX c #CFE4FA",
"yX c #DBEEFF",
"uX c #DDEDE8",
"iX c #FEE8E7",
"pX c #E8F6EB",
"aX c #FDFEE4",
"sX c #FFF4EC",
"dX c #FEFDED",
"fX c #F8F5E9",
"gX c #E9ECFA",
"hX c #FAE7F9",
"jX c #E5F8FF",
"kX c #EDFEFF",
"lX c #E9F7F8",
"zX c #FEF4F4",
"xX c #F5FEF3",
"cX c #FEFDF4",
"vX c #F3F4FE",
"bX c #FFF5FD",
"nX c #F4FEFE",
"mX c #FDFDFD",
"MX c #E7E6EC",
/* pixels */
"nXnXmXcXcXmXmXmXbXmXmXmXmXbXhX3X2.` ) ' 2.~.3XsXsXcXmXnXnXkXnXnX",
"nXnXmXmXmXmXmXmXmXbXzXmXsXzXhX1.K ) ) ( W ~ 1.].sXcXcXnXkXnXnXmX",
"kXnXmXbXmXmXmXmXmXcXsXdXaX2X~..._ R R R ) ( W F ~.sXcXcXmXmXmXmX",
"kXnXmXbXmXmXnXmX`.[.1X1X6XXXX.Y E R R I I ! ` W H ).sXcXcXmXmXmX",
"nXmXmXmXmXnXnXmX=.< G +./ _ U R P R P I ) ) U ( Q G '.sXsXmXzXmX",
"mXmXmXmXmXnXnXmXeX;.* B ~ J J ( R R R I I I U ( ^ B $.3XzXzXmXmX",
"nXmXmXmXcXmXnXnXmXiX-.= n C n H T K E ( E ) ( L L / M !.zXxXnXkX",
"mXmXmXmXmXcXcXcXfXzXzX[.!.Q.Q.8.:...T J ^ Y K ^ ~ F D o.iXmXnXnX",
"cXmXmXmXnXxX8X8X2X1X3XbX`.*.7XOX'.~.{ M V N N B B H m S -.3XmXmX",
"cXmXmXnXnXxX8X6XOX_.Q.3XJ.J.9X@X).Z Z $ b :.<.{ b m m m n @.4XcX",
"mXmXmXnXnX7X+X/.w.0.=.3 1 8 #X@X0.@ % % 8._.oX|.[ b m m D * -.sX",
"mXmXnXnXmXdXOX/.6.9       4.#X@XoX&.[ 8.(.9.}.6X&.$ C H D S !.sX",
"mXmXnXxXcXsXsX7X1     > w.|. X}. XoX_.oX_.@X9X).> n M M S -.iXsX",
"nXmXmXdXsXcXmXmX<XP.^.(.e.q.e.w.w.9.q.8.(.).0.> # % = #.].zXcXfX",
"vXnXmXcXcXmXnXmXmXzX2X).8.8.,.,.8.&.&.G $ & # # 0 k [.zXzXbXmXmX",
"mXmXxXxXnXkXgXqXhXeXeX[.3.#.#.$.C C A C B m @.4X7XcXcXzXmXgXnXnX",
"mXvXmXuX:XyXnX,XrXP.x a f s s a m J Y _ ^ >.eXbXmXxXxXnXvX0X,X,X",
"vXnXpX5XT.>XkX,XE.U.j x S.b.p z o.^ Y Y W 1.eXgXlXlXkX,X:X*X&X&X",
"lXuXE.R.*XgX,XI.v.c c 5XMXK.p z o./ V V B G U.lX,X:X>X%X%X%X%X%X",
"cXE.7.*.L.E.F.F.b.h v Y.v.h k.h.d O.S < < 4 L.,XR.&X:XG.G.Y.:XtX",
"@X5.| %.%.W.vXtX=Xc.u.u.d.x.V.g.c.a.h.p w v nXnXwX$XK.T.tXjXnXnX",
"5.7  . .} 4.wX>XH.M.C.N.C.M.n.N.m.f.d.p.y k.tX0X;X;X0XvXnXnXxXdX",
"'.9 : [ } 0 i c.V.M.A.N.N.N.N.f.z.l.u.t.j.u r + , D.mXmXgXnXxXdX",
"zX=.> : 7 j a.Z.B.B.N.N.V.M.f.z.s.s.u.u.t.g O + # a iXmXmXmXfXaX",
"bX3X2 - 7 8 k.x.m.m.m.n.f.d.l.u.u.i.u.s.l.t q r 4 . `.zXbXmXdXaX",
"bXbX^.. 6 8 p x.f.z.z.f.d.u.t.u.y.i.i.u.r.r.y w 1 . J.mXbXhXcXdX",
"mXbXiXk . 3 e y.s.z.s.r.t.y.y t t y r.p.p.r.t.w 1 ; j MXbXmXnXxX",
"nXmXcX`.; 3 j e y.p.c.H.>XyX-Xk.q u y r.y.y.y e 1 - o U.mXmXnXlX",
"nXxXdX7X=.X X r v.tXkXjXnXmXhXvX%Xb.k.k.p p w + 5 > # l mXmXxXxX",
"nXxXaXdXiXJ.J.<XmXnXnXcXfXmXmXbXnXkXjXtXqX$Xj k 9 : @ ; 4XcXcXcX",
"mXmXdXdXfXmXcXmXmXmXmXmXmXmXnXnXmXvXnXnXvXmX.X6 9 : - 2 .XmXmXzX",
"mXmXdXdXmXmXmXcXcXmXmXnXnXnXnXnXmXmXnXnXmXmXaX{.] 9 ] ^.cXnXmXmX"
};
