/* XPM */
static char *_39beff0c93a4a18fcdeb3918af7bed89fpNUNqXWnVtdhPC[] = {
/* columns rows colors chars-per-pixel */
"32 32 125 2 ",
"   c #2B6E0D",
".  c #2C710E",
"X  c #32790F",
"o  c #3A7C0C",
"O  c #2D6F12",
"+  c #2D7413",
"@  c #327515",
"#  c #347A15",
"$  c #3A7D16",
"%  c #347719",
"&  c #367B19",
"*  c #3A7D1B",
"=  c #387D20",
"-  c #417F1A",
";  c #3F840D",
":  c #378017",
">  c #3C8216",
",  c #3C811C",
"<  c #3E8320",
"1  c #41860F",
"2  c #43890D",
"3  c #418515",
"4  c #458B15",
"5  c #498E16",
"6  c #43851D",
"7  c #48871F",
"8  c #458A1B",
"9  c #498D1B",
"0  c #4C9216",
"q  c #4A9016",
"w  c #47901A",
"e  c #4B9019",
"r  c #4A9119",
"t  c #49901A",
"y  c #4B901B",
"u  c #4A911B",
"i  c #4C9019",
"p  c #4C9218",
"a  c #4D9319",
"s  c #4C911A",
"d  c #4D911A",
"f  c #4F901A",
"g  c #4D921B",
"h  c #4E921B",
"j  c #4F9519",
"k  c #4E941A",
"l  c #4B921C",
"z  c #4C911C",
"x  c #4C911D",
"c  c #4D921D",
"v  c #4C931D",
"b  c #4E931C",
"n  c #4F931C",
"m  c #4C901F",
"M  c #4D901F",
"N  c #4D921E",
"B  c #4E931E",
"V  c #4F941D",
"C  c #50911B",
"Z  c #50961A",
"A  c #52931D",
"S  c #50941D",
"D  c #50961C",
"F  c #51951E",
"G  c #53941E",
"H  c #52961F",
"J  c #458320",
"K  c #428420",
"L  c #438420",
"P  c #438720",
"I  c #478520",
"U  c #468421",
"Y  c #458620",
"T  c #448720",
"R  c #468721",
"E  c #478522",
"W  c #468723",
"Q  c #438421",
"!  c #488621",
"~  c #498722",
"^  c #4B8723",
"/  c #498724",
"(  c #478820",
")  c #478A20",
"_  c #498820",
"`  c #488921",
"'  c #4A8920",
"]  c #4A8921",
"[  c #488A20",
"{  c #498B21",
"}  c #498A22",
"|  c #4A8B23",
" . c #4C8B23",
".. c #4A8C20",
"X. c #4B8D21",
"o. c #4B8F20",
"O. c #4A8C22",
"+. c #4B8D23",
"@. c #4D8C23",
"#. c #4A8825",
"$. c #4A8B25",
"%. c #4B8926",
"&. c #4C8824",
"*. c #4C8A25",
"=. c #4D8B26",
"-. c #4C8A27",
";. c #4E8A26",
":. c #4D8C24",
">. c #4C8E24",
",. c #4E8C27",
"<. c #4B8923",
"1. c #518F2A",
"2. c #508C28",
"3. c #4E9120",
"4. c #4D9122",
"5. c #4E9223",
"6. c #4F9326",
"7. c #509520",
"8. c #509521",
"9. c #539720",
"0. c #559620",
"q. c #549821",
"w. c #559922",
"e. c #569A23",
"r. c #52902B",
/* pixels */
"2 4 q a x x x x x a e a k D Z k a a a x D q.7.D q.q.e.e.0.A a 9 ",
"4 5 q q 5 5 5 e V x a a k k 0 q D D D D 7.D D x D 7.7.7.D a 9 5 ",
"5 5 5 5 5 5 5 5 x x a a a a q 4 5 5 e e e 5 5 e a a x x a e 5 5 ",
"4 4 4 5 5 5 x x 5 e x a a a 5 5 5 a a e 5 5 5 a 5 9 9 a a e 5 5 ",
"1 4 4 5 5 x x x 5 5 5 x x a a a a a a 5 4 1 1 1 5 5 5 5 e e 5 5 ",
"4 4 4 5 5 5 5 5 8 5 5 5 5 e x V 5 5 4 4 3 ; ; ; 5 5 5 5 e e 5 5 ",
"4 4 4 4 5 9 9 9 o.9 9 5 5 5 x 7.l e e e l x x x 5 4 3 5 5 w 5 3 ",
"5 4 4 4 5 o.4.4.6.4.o.8 8 5 x 7.x e 5 5 5 e 5 5 4 4 3 3 5 5 4 4 ",
"o o o 6 8 8 8 o.>.7 3 3 8 x 4.x 9 5 5 4 4 5 9 5 3 3 > > 3 3 8 5 ",
"o o $ 3 7 6 6 6 } ( 6 6 6 8 8 5 8 8 8 8 8 8 3 3 8 3 > > 3 3 3 5 ",
"3 3 3 7 } 6 6 6 R } } 7 6 3 6 8 8 8 o.8 7 8 8 3 8 8 3 3 8 3 > 3 ",
"7 7 7 } } } 6 6 6 R } } ( 7 } o.o.@.o.8 7 8 ( 7 6 3 8 7 8 > > # ",
"6 7 6 6 R R 6 6 , 6 6 6 } o.o.>.8 } } 6 6 6 6 6 > > > 3 6 $ X . ",
"6 6 6 6 R R 6 6 * $ * 6 6 } o.@.6 7 } 7 7 6 6 , , > 3 8 6 > # X ",
"6 7 7 6 ! -.$.R 6 6 - 6 6 }  .>.-.-.-.! ! ! R 6 R 6 6 ( L 6 , , ",
"3 6 6 6 } -.-./ -.$.! 6 6 R $.>.r.2.-.R 6 J R L R L , , L , 6 6 ",
"> 3 6 6 ( } >.2.-.} R L R R W W $.$.$.} R Q Q Q Q < < < Q , , , ",
"> 3 6 6 6 6 } } 2.$.R 6 6 6 L 6 R R 6 L Q Q Q Q * * * * , , , , ",
"> > > 6 6 6 6 6 $.R 6 * * * * * 6 , * * , Q Q Q * & & & $ $ $ , ",
"> > > > > $ , 6 6 6 * $ & $ $ : , * & $ * , , * * * & & $ $ # # ",
"# $ > > > > , 6 , , * $ $ & * $ 6 , $ # $ $ * & * * * * * * & @ ",
"# $ $ > > > , , 6 , , , * & & & , : $ # & & & & & & * < Q , $ # ",
": : : : $ $ $ $ $ , < < , $ & & : : & $ & & & & & & & * Q Q * & ",
": : : $ $ # # # # & , , , & & & $ $ $ $ # & & & & & & $ * * * * ",
"# $ $ $ # @ @ @ # & & & & $ , < : : & # # # & = % @ @ % & $ $ * ",
"$ & & $ # @ @ X # # # # # $ , < $ $ $ & & & % @ @ @ @ @ # $ * , ",
"$ $ & & # @ + # # @ @ # & $ , , : & & & & & % @ @ + + @ @ & * * ",
"# # # # @ + @ # # @ + X # & $ $ , , * & & & & & & % @ @ @ @ # % ",
"+ + @ + + + # # # + + + @ # # # $ : , $ % @ % & = & % + + + + + ",
"      . . + + # # # + + @ # @ # # $ < < & # % % & % @ + + + + + ",
"          . + + @ @ @ + @ @ @ # # $ , < * & % % + + + + + + + + ",
"O O         . + . + + + . . @ @ $ $ & & & # % % O O + + + + + + "
};
