/* XPM */
static char *fc051413c4724844e79f91b19ef5000eUXtZINTBkHbJHopb[] = {
/* columns rows colors chars-per-pixel */
"32 32 234 2 ",
"   c #732B1D",
".  c #791726",
"X  c #6B2A31",
"o  c #6C5C09",
"O  c #59455E",
"+  c #594E66",
"@  c #7F516B",
"#  c #92100B",
"$  c #B80703",
"%  c #A81406",
"&  c #BA0F15",
"*  c #B71915",
"=  c #AF1617",
"-  c #AA2105",
";  c #B02518",
":  c #901C2E",
">  c #A51533",
",  c #B11A21",
"<  c #8D2936",
"1  c #992333",
"2  c #CA0704",
"3  c #D80609",
"4  c #C71108",
"5  c #D70916",
"6  c #C81517",
"7  c #D6141A",
"8  c #EC0002",
"9  c #EC050C",
"0  c #E20A0D",
"q  c #EB0A0D",
"w  c #E20109",
"e  c #F20202",
"r  c #F3090E",
"t  c #FA090B",
"y  c #E70617",
"u  c #F90416",
"i  c #F51317",
"p  c #EB1410",
"a  c #C92317",
"s  c #CA1A26",
"d  c #C61C32",
"f  c #DA1020",
"g  c #F51224",
"h  c #C4252B",
"j  c #DB262A",
"k  c #D03230",
"l  c #86680D",
"z  c #916F16",
"x  c #B24C2B",
"c  c #8F7827",
"v  c #CD4422",
"b  c #9B3545",
"n  c #8F3653",
"m  c #DC2F41",
"M  c #A84C55",
"N  c #885071",
"B  c #8E6478",
"V  c #B3767F",
"C  c #D65F5B",
"Z  c #ED4548",
"A  c #F15252",
"S  c #FC645F",
"D  c #FC5C67",
"F  c #D1747A",
"G  c #F9666C",
"H  c #F66E6E",
"J  c #8C9877",
"K  c #A09373",
"L  c #B9AC76",
"P  c #A9AB75",
"I  c #D3B35B",
"U  c #E4B559",
"Y  c #FA9A6B",
"T  c #EB9061",
"R  c #CAB869",
"E  c #CFB56A",
"W  c #F6A974",
"Q  c #D7C37E",
"!  c #E7C765",
"~  c #F8C67A",
"^  c #ECD276",
"/  c #F9D77C",
"(  c #F3D76A",
")  c #FBE079",
"_  c #9A7C9B",
"`  c #A77988",
"'  c #B07284",
"]  c #887DA2",
"[  c #CF7B82",
"{  c #76BBFA",
"}  c #76C5E8",
"|  c #6DC6F6",
" . c #6DC5FC",
".. c #6AC9FB",
"X. c #68CAF7",
"o. c #72C6F7",
"O. c #74C4FC",
"+. c #7CC5FD",
"@. c #74C9FE",
"#. c #7BCBFD",
"$. c #7FC7F7",
"%. c #7CD3FE",
"&. c #79D1F8",
"*. c #8A9C82",
"=. c #A5A681",
"-. c #A2B188",
";. c #B7AD8C",
":. c #8691A9",
">. c #AF98AA",
",. c #83B3BA",
"<. c #B297A5",
"1. c #FF999B",
"2. c #FF958A",
"3. c #FFBE82",
"4. c #EABE81",
"5. c #C699AA",
"6. c #C8BAB0",
"7. c #FFB6B4",
"8. c #FFB0AA",
"9. c #D8D098",
"0. c #FECD82",
"q. c #F2CA84",
"w. c #FCDD84",
"e. c #FAD787",
"r. c #EBDB93",
"t. c #FAD993",
"y. c #EDD68B",
"u. c #FBE389",
"i. c #F4E297",
"p. c #C5C9B7",
"a. c #D1D0BE",
"s. c #F1D2A9",
"d. c #8BB3C6",
"f. c #98B6C4",
"g. c #98B9D6",
"h. c #A2A5C6",
"j. c #A3BCD9",
"k. c #B7BAD7",
"l. c #8ABCEC",
"z. c #AFBDE3",
"x. c #DDB7C2",
"c. c #B9C8D8",
"v. c #B7CECD",
"b. c #87C5EB",
"n. c #99CAEA",
"m. c #9AD6ED",
"M. c #9AD9EB",
"N. c #84C5FE",
"B. c #8CC6FE",
"V. c #84CBFE",
"C. c #8ACBFD",
"Z. c #86C9F3",
"A. c #97CAF3",
"S. c #83D3FD",
"D. c #8DD3FE",
"F. c #8DDAFE",
"G. c #88D1F4",
"H. c #95D4FE",
"J. c #9AD4FE",
"K. c #9CDBFD",
"L. c #97D9F7",
"P. c #A5C5E4",
"I. c #B1C5E3",
"U. c #A1D6EB",
"Y. c #A2DCF5",
"T. c #A4D2FF",
"R. c #A3DCFC",
"E. c #ABD9FC",
"W. c #B3DDFF",
"Q. c #B7DBFF",
"!. c #9AE3F8",
"~. c #96EAF4",
"^. c #B9EAEE",
"/. c #A3E2FC",
"(. c #ADE2FE",
"). c #A8E8F8",
"_. c #B3E4FF",
"`. c #B9E4FF",
"'. c #B3ECFE",
"]. c #BBECFD",
"[. c #B5E8F5",
"{. c #AEF4FF",
"}. c #B5F0F5",
"|. c #BDF3FC",
" X c #B8F7FD",
".X c #AAE8ED",
"XX c #CECCD3",
"oX c #F8CBD3",
"OX c #FFD8D5",
"+X c #E8C9CD",
"@X c #CDE9D7",
"#X c #D1E6D5",
"$X c #FFECDE",
"%X c #D0C8E0",
"&X c #F8DFE7",
"*X c #F3DDEB",
"=X c #C6E4EA",
"-X c #CCF8E3",
";X c #D2F5E6",
":X c #C4EEFE",
">X c #CBECFD",
",X c #C9EFF4",
"<X c #D5ECFE",
"1X c #DBEBFC",
"2X c #D7EEF6",
"3X c #C4F1F4",
"4X c #CDF3F5",
"5X c #CAFCF5",
"6X c #C3F4FE",
"7X c #CBF3FE",
"8X c #CDFAFD",
"9X c #D4FBF4",
"0X c #DDFDF3",
"qX c #D3F4FB",
"wX c #DCF4FD",
"eX c #D4FBFD",
"rX c #DBFBFF",
"tX c #D9F6F4",
"yX c #DAE0EE",
"uX c #FFE7E7",
"iX c #FEF6E7",
"pX c #E5EEF9",
"aX c #FFEBFC",
"sX c #FDEAF7",
"dX c #E4F4FF",
"fX c #E4FDFD",
"gX c #EBFCFF",
"hX c #E5F9F6",
"jX c #FEF2F4",
"kX c #FFFAF5",
"lX c #FEF4FC",
"zX c #FFFBFF",
"xX c #FEFBFD",
"cX c #F2FFF9",
/* pixels */
"| |  . . . .O.O.o.| O.+.{ @.} } } } +.{ +.O...X.| o.....O.O.O.O.",
"@.@.@.@.@.@.+.+.O.o.+.{ N.{ b.n.n.b.l.N.{ #.....o.O.@.O.O.+.@.@.",
"@.@.@.@.#.$.N.+.O.O.V.b.A.n.h.] ] h.P.A.b.V.@. .+.+.+.+.@.@.+.+.",
"@.@.@.#.$.Z.N.N.#.#.l.P.:.+ O _ _ O + :.j.l.#.%.+.N.N.N.#.#.#.#.",
"%.#.V.V.V.C.C.V.%.Z.k.N X ' lXlXlXlX' X @ k.b.%.V.B.N.N.B.V.#.&.",
"&.%.V.V.V.C.C.C.Z.j.N b F uXkXxXxXzXuXF b n j.b.B.B.C.V.C.V.V.&.",
"G.G.%.#.V.V.C.A.I.B > d OXiXkXzXxXkXiX$Xd > N k.A.C.C.V.%.%.G.G.",
"G.G.S.S.V.C.C.P.` < s G iXiXxXzXxXkXiXiXG d : ` I.A.C.S.%.%.D.C.",
"G.F.S.F.#.V./.h.1 s * 2.iXkXzXxXzXxXxXiX1., s > >.E.S.%.F.S.F.D.",
"D.D.G.D.D.D.n.>.h p % 8.uXxXzXzXzXjXxXjXs.* 3 m 5.n.D.S.F.D.D.D.",
"H.D.H.J.H.K.d.6.A 2 6 8.lXzXxXkXzXxXlXlX7.a 3 Z x.g.J.D.H.H.H.H.",
"H.H.R.L.L.R.,.uXH 3 2 1.aXzXjXxXkXzXlXlX1.4 p Z uXd.R.H.L.L.J.T.",
"J.J.R.m.m.m.,.kXS i w D sXsXkXxXkXjXlXsXG 0 q Z lXd.K.F.L.K.T.T.",
"K.J.Y.U.Y.M.f.lXD w i f oXjXkXkXxXlXkXOXj i w Z aXf.m.!.L.R.T.T.",
"!.K.Y.Y./.U.c.aXA 3 r 0 D &XkXcXcXkXuXG 5 9 w m aXk.M.~.!./.R.R.",
"F.!.Y.R.R.P.%XsXh q 8 r 5 G uXiXiXuXH 7 0 r w s &X%XP./.!.L.R.R.",
"~.M._.E._.j.*X7.6 e t e r 3 j S S j 3 9 r 8 t 4 7.*Xg._.R.(.!.).",
"~.).].T._.c.+XC 3 t e e r q 0 3 3 0 q r u 8 t 2 H +XI.`.W.(.M.).",
".X.XQ.Q.'.c.[ s q t u u y 7 4 4 4 $ 7 5 y u e p h [ %XW.`.`.'.[.",
"[._.Q.`.{.=XM 6 y 8 g 5 & % - v k ; # = 5 3 9 3 & M yXY.`.Q.'.).",
"(.].Q._.).4XV = g 9 3 % x Y 3.~ 3.W W x % $ 3 7 , ' 1X(.`.W._./.",
"'.'.`._.{.^.+Xb s 2 - Y t.t.0.0.0.0.t.t.Y - $ = < +X=X'.].`.'.'.",
" X'.].|. X.XqX<.: ; T e.w.E R r.t.E E y./ W # . <.qX^.}.]._.'.{.",
"'.|.6X^.}. X].dX5.  4.w./ l o i.i.c o u.^ q.  <.dX[.|.}.].].6X].",
":X3X3X3X|.|.:X>XpX6.R ^ u.z l t.u.c l u.^ Q ;.pX>X].|.|.|.6X,X>X",
">X,X3X3X6X:X>X>X=X@XP r./ U U w.^ ! I e.e.L #X4X:X:X6X|.|.6X<X1X",
">X7X7X7X7X>X<X<X8X-X-.9.t.^ / ! ( / ^ q.s.=.;X3X>X>X6X6X6X7X<X1X",
"7X7X7X7X7XqX<X<X3X9Xv.J 9.r.u.w.w.u.r.9.K a.0X7X7X7X7X6X6X7XqX1X",
"5X5X5X4XqXqXqXqXqX4XgX@X*.=.;.L L P -.J #XgXwXqX7X8X7X8X5X5X4XqX",
"5X5X9X9XqXqXeXqXrXqX,XfX0X#Xp.p.a.p.@XhXhX1X2XqX8X8XqXeX5X5XeXeX",
"eXeXeXeXrXrXeXeX,XrX0X;X0X0XgXgXdXfX0X;XtXtXfXqXeXeXwXwXeXeXeXeX",
"rXrXrXrXrXrXrXeXfXqX0X0X9XrXrXwXdXrX9X-XfXfX9XrXeXrXdXdXeXeXrXrX"
};
